<svg viewBox="0 0 307 42" xmlns="http://www.w3.org/2000/svg" xml:space="preserve" style="fill-rule:evenodd;clip-rule:evenodd;stroke-linejoin:round;stroke-miterlimit:2">
    <path d="M-3.843-8.349h16.891l-2.409 3.746-12.447-.019-2.035-3.727Z" style="fill:#431cc7;fill-rule:nonzero" transform="scale(2 -2) rotate(-61.367 .264 -10.29)"/>
    <path d="M0 12.081c-3.666 0-5.343-2.682-5.343-6.041C-5.343 2.682-3.666 0 0 0s5.343 2.682 5.343 6.04c0 3.359-1.677 6.041-5.343 6.041M0-1.617c-4.933 0-8.833 2.907-8.833 7.657 0 4.751 3.9 7.658 8.833 7.658 4.932 0 8.833-2.907 8.833-7.658 0-4.75-3.901-7.657-8.833-7.657" style="fill:#431cc7;fill-rule:nonzero" transform="matrix(2 0 0 2 221.951 14.024)"/>
    <path d="M0-10.554h5.34V2.011h3.329v-12.565h5.34v-2.011H0v2.011Z" style="fill:#431cc7;fill-rule:nonzero" transform="matrix(2 0 0 2 173.832 36.636)"/>
    <path d="M0-3.449c-2.126-.554-4.134-1.078-4.134-2.391 0-1.323 1.848-1.915 3.679-1.915 1.82 0 3.546.456 5.278 1.392l.42.227v-1.927l-.165-.082C3.516-8.92 1.457-9.383-.429-9.383c-3.162 0-6.54 1.165-6.54 4.436 0 3.154 3.247 4.013 6.112 4.772C1.3.395 3.336.934 3.336 2.334c0 1.338-1.927 1.98-3.717 1.98-2.118 0-4.221-.665-6.248-1.957l-.227-.145-.942 1.367.255.173c2.018 1.367 4.779 2.182 7.384 2.182 3.945 0 6.493-1.756 6.493-4.439 0-3.292-3.512-4.208-6.334-4.944" style="fill:#431cc7;fill-rule:nonzero" transform="matrix(2 0 0 2 156.98 29.542)"/>
    <path d="M0 2h8.257l.006-2.016H0v-4.251h8.904l.006-2.017H-3.329V8.284H9.035l.006-2.016H0V2Z" style="fill:#431cc7;fill-rule:nonzero" transform="matrix(2 0 0 2 117.545 24.063)"/>
    <path d="M0 10.535V6.267h8.257l.006-2.016H0V0h8.905l.005-2.016H-3.329v14.567H9.035l.006-2.016H0Z" style="fill:#431cc7;fill-rule:nonzero" transform="matrix(2 0 0 2 288.814 15.528)"/>
    <path d="M0 5.542 2.493.901l2.542 4.641H0Zm-4.823 4.64 2.329.003 1.411-2.627H6.14l1.438 2.624h3.783L3.267-4.643l-8.09 14.825Z" style="fill:#431cc7;fill-rule:nonzero" transform="matrix(2 0 0 2 54.77 20.265)"/>
    <path d="m0 3.74-5.085-9.281h-3.784L-.775 9.284l8.09-14.825-2.33-.003L0 3.74Z" style="fill:#431cc7;fill-rule:nonzero" transform="matrix(2 0 0 2 90.655 22.593)"/>
    <path d="m0-14.575.004 9.072-12.051-9.333V-.003h2.014l.014-9.063L2.014.261l.002-14.836H0Z" style="fill:#431cc7;fill-rule:nonzero" transform="matrix(2 0 0 2 270.249 40.645)"/>
    <path d="M0-20.58h-2.653c-2.896 3.035-5.583 6.249-7.672 9.626a51.752 51.752 0 0 0-2.356 4.236l-4.442-8.107h-4.246L-13.275 0l.002-.008C-10.777-7.504-6.209-14.46 0-20.58" style="fill:#431cc7;fill-rule:nonzero" transform="matrix(2 0 0 2 60.381 41.16)"/>
</svg>
